<?xml version="1.0" encoding="utf-8"?>
<!-- Generator: Adobe Illustrator 22.0.1, SVG Export Plug-In . SVG Version: 6.00 Build 0)  -->
<svg version="1.1" id="Layer_1" xmlns="http://www.w3.org/2000/svg" xmlns:xlink="http://www.w3.org/1999/xlink" x="0px" y="0px"
	 viewBox="0 0 200 100" style="enable-background:new 0 0 200 100;" xml:space="preserve">
<style type="text/css">
	.st0{fill:#F2F2F2;}
</style>
<g id="Ford_Logo_1_">
	<path class="st0" d="M100,14.1C44.8,14.1,0,30,0,49.6c0,19.6,44.8,35.3,100,35.3c55.3,0,100-15.7,100-35.3
		C200,30,155.2,14.1,100,14.1z M100,82.1c-53.5,0-96.8-14.6-96.8-32.5c0-17.9,43.3-32.5,96.8-32.5c53.5,0,96.9,14.6,96.9,32.5
		C196.8,67.5,153.4,82.1,100,82.1z"/>
	<path class="st0" d="M158.6,37.3h-5.3l-8.7,14.6c-0.7-1.3-1.7-4.5-5.6-4.6c-6.6-0.1-9.1,4.4-13.7,8.7c-1.3,1.2-3,2.8-6.6,2.8
		c-2.1,0-3.8-1.7-3.4-4c0.3-1.7,0.9-2.6,2.1-3.1c0.6,1.7,1.7,2.7,3.7,2.7c2.2-0.1,3.5-2.1,3.6-3.8c0-1.5-0.9-3.4-3.6-3.5
		c-2.5-0.1-4.4,1-7,4.1c0,0,0.7-4.6-4.4-4.4c-0.5,0-1.1,0-1.6,0.3c-2.8,0.9-6.3,5.3-9.1,8.7c0.1-0.7,0.1-1.3,0.1-2
		c0-1.9-0.7-4.5-2.1-5.8c-0.3-0.3-0.5-0.3-0.8-0.3c-0.9,0-1.6,0.7-1.6,1.9c0.7,0.7,1.5,2.3,1.5,4c0,1.6-0.5,4.6-1.1,5.7
		c-2.5,4.4-5.8,7.2-9.7,6.6c-2.1-0.5-3.5-2.5-3.1-5.5c0.2-1.7,1.3-4.2,2.3-5.6c1.7-2.3,4.4-4.6,8.5-5.2c0,0,0.2-0.8-0.3-1.2
		c-0.2-0.3-0.5-0.7-1.4-0.7c-5.7,0.2-9.2,4.3-11.2,8.3c-0.7,1.4-1.8,3.4-2.4,4.7c0,0-0.5,1.5-3,3.4c-1.3,1-1.7,1.3-1.9,1.3
		c0.1,0.5,0.4,1.1,1,1.7c0.2,0.1,0.9-0.3,1.1-0.4c3.2-1.8,3.5-2.7,3.5-2.7c0.7,3.8,3.9,5.7,7.4,5.7c4.9,0,9.4-4.4,12-8.3
		c2.8-4.1,6.5-8.1,6.5-8.1c1.5-1.4,3-2.3,4-2.3c0.9,0.1,1.5,0.8,1.3,1.6c-0.3,1.4-0.8,2.8-1.7,4.4l-7.3,12.4h5.7
		c3.3-6.2,3.4-6.4,6.6-12.3c0.9,3.3,2.6,4.6,5.4,4.6c2.4,0.1,4.1-0.1,5.9-1c-0.5,1.9-0.2,3.8,0.4,5c0.7,1.5,2,3.5,5.3,3.6
		c4,0,7.8-1.7,9-2.8c0.3,1.9,1.3,3,3.8,3c5-0.1,9.5-5.3,12.1-8.7c0.5-0.6,1.1-1.6,1.1-1.9c0-0.4-0.5-0.7-0.8-0.7
		c-0.3,0-0.7,0.6-1,0.9c-1.3,1.3-6.6,6.8-9.5,7c0.6,0-1,0.3-1.1-0.9c-0.1-0.8,0.6-1.8,0.9-2.3L158.6,37.3z M141.8,56.5
		c0,0-2.3,3.8-4.6,6.2c-4.2,4.2-6.8,2.8-7.4,2.3c-0.6-0.5-1.1-2.1-0.8-3.8c0.2-1.7,1.5-4.5,2.7-6c2.4-3,5.4-5,7.7-4.7
		c2.9,0.3,3.2,3.2,1.7,5.8L141.8,56.5z"/>
	<path class="st0" d="M91.3,27.8c5.1,1.4,14.8,5.6,24.2,5.6c6.4,0,13.9-4.1,13.9-6.2c0-0.5,0-1.1-1.3-1.1c-1.5,0-0.7,0.1-4.4,0.7
		c-3.5,0.5-7.8,0.4-11.1,0.4c-9.1-0.1-20.3-2-24.8-2.8c-3.9-0.7-7.4-0.9-10.6-0.9c-16.7,0-23.5,6.7-23.5,13.4
		C53.5,40.4,56.1,44,60,44c7,0,11-7.2,11.3-9.9c0,0,0.1-0.5-0.3-0.8c-0.2-0.1-0.7-0.1-0.9,0.4c-0.9,2.2-4.7,4.8-7.4,5.2
		c-2.5,0.5-4.2-0.9-4.3-3c-0.3-5.1,5.5-10.7,18.5-10.7c3.7,0,8.4,1,13.6,2.2c0,0,0.1,0,0.1,0c0.1,0,0.2,0,0.3,0
		C91,27.6,91.1,27.6,91.3,27.8z"/>
	<path class="st0" d="M88.8,43.1c0,0,0.8,1.9,2.8,1.9c0.3,0.1,0.3-0.3,0.5-1c-0.9-0.1-1.9-0.7-1.9-1.4c0.8-0.4,1.5-0.9,2.1-1.3
		c0.9-0.8,1.7-2.5,1.7-3.6c0-1.1-0.8-2.1-2-2.3c-2.1-0.3-3.8,1.4-4,4.3c0,0.7,0.3,1.6,0.3,1.6s-4.7,0.8-8.7,1
		c5-8.4,9.5-11.3,10.9-12.5c0.3-0.2,0.9-0.9,1-1.1c0.2-0.4,0-0.7-0.2-0.9c-0.2-0.1-0.5-0.1-0.7-0.2c-2,0.4-9.4,6.1-15.2,14.9
		c-1.5,0.2-8,0.7-10.1,3.2c-0.2,0.3-0.4,0.7-0.4,0.9c0.1,0.5,0.5,0.8,1.1,0.3c1.3-1.5,6.8-2.1,8.1-2.2
		c-7.9,11.1-15.2,18.5-21.7,18.5c-0.7,0-1.3,0.1-2.1-0.1c-2.6-0.6-4.2-3.4-4.2-5.8c0-3.3,3.2-6.8,5-7.5c0.6-0.3,0.9-0.6,0.9-0.9
		c0-0.4-0.3-0.7-1-0.7c-6.2,1.5-9.6,6.6-9.5,10.8c0.1,6.8,5.3,10.7,11.1,10.7c8.2,0,12.3-3.6,25.7-25.2
		C83.5,43.9,86.1,43.5,88.8,43.1z M89.9,38.5c0.3-1,0.9-1.5,1.9-1.7c0.5-0.1,0.7,0.4,0.7,0.8c0.1,0.8-0.5,2-0.9,2.4
		c-1,1.1-1.7,1.1-1.7,1.1C89.7,40.3,89.6,39.6,89.9,38.5z"/>
	<path class="st0" d="M90.8,27.6c-0.1,0-0.2,0-0.3,0c0.2,0.1,0.4,0.1,0.7,0.2C91.1,27.6,91,27.6,90.8,27.6z"/>
</g>
</svg>
